# xmcd
#
# Track frame offsets: 
#        150
#        19076
#        36922
#        51337
#        71150
#        88071
#        106650
#        123687
#        143318
#        162244
#
# Disc length: 2422 seconds
#
# Revision: 0
# Processed by: cddbd v1.5.2PL0 Copyright (c) Steve Scherf et al.
# Submitted via: ExactAudioCopy v0.99pb4
#
DISCID=8409740a
DTITLE=จ๊อบ-จอย - หมอลำร็อค
DYEAR=2008
DGENRE=Country
TTITLE0=สาวจิ๊กโก๋
TTITLE1=พญาเทครัว
TTITLE2=จ๊อบ-จอย คอยคู่
TTITLE3=ใจนี้มีเพียงอ้าย
TTITLE4=บ่เป็นหยั่งดอก
TTITLE5=โทรหาน้องแหน่
TTITLE6=จ๊อบ-จอยวอนแฟน
TTITLE7=อยากย้อยเวลา
TTITLE8=ไม่อยากฟังเหตุผล
TTITLE9=ยังมีหญิงที่ดีกว่า
EXTD=
EXTT0=
EXTT1=
EXTT2=
EXTT3=
EXTT4=
EXTT5=
EXTT6=
EXTT7=
EXTT8=
EXTT9=
PLAYORDER=
